<svg xmlns="http://www.w3.org/2000/svg" xmlns:xlink="http://www.w3.org/1999/xlink" viewBox="0 0 1494.6 1497.5"><defs><style>.cls-1{fill:none;}.cls-2{isolation:isolate;}.cls-3{clip-path:url(#clip-path);}.cls-4{opacity:0.98;}.cls-5,.cls-6,.cls-8,.cls-9{mix-blend-mode:screen;}.cls-5{fill:url(#radial-gradient);}.cls-6,.cls-9{opacity:0.67;}.cls-6{fill:url(#radial-gradient-2);}.cls-7{clip-path:url(#clip-path-2);}.cls-8{fill:url(#radial-gradient-3);}.cls-9{fill:url(#radial-gradient-4);}.cls-10{fill:#fff;}.cls-11{fill:#d5ada1;}.cls-12{fill:#f7fafb;}.cls-13{fill:#c88b5e;}.cls-14{fill:#1e0e00;}.cls-15{fill:#70a1ae;}.cls-16{fill:#04272f;}.cls-17{fill:#231f20;}.cls-18{fill:#58595b;}.cls-19{fill:#414042;}.cls-20{fill:#9b9b9b;}.cls-21{fill:#490332;}.cls-22{fill:#6b0143;}</style><clipPath id="clip-path"><rect class="cls-1" x="901.9" y="-1312.6" width="1080" height="970.13" transform="translate(614.4 -2269.4) rotate(90)"/></clipPath><radialGradient id="radial-gradient" cx="1434.64" cy="-1014.43" r="616.32" gradientTransform="matrix(0, -1.19, 0.82, 0, 2309.89, 1429.07)" gradientUnits="userSpaceOnUse"><stop offset="0" stop-color="#e21c25"/><stop offset="0.08" stop-color="#be181f"/><stop offset="0.21" stop-color="#8c1117"/><stop offset="0.33" stop-color="#610c10"/><stop offset="0.46" stop-color="#3e080a"/><stop offset="0.6" stop-color="#230406"/><stop offset="0.73" stop-color="#0f0203"/><stop offset="0.86" stop-color="#040001"/><stop offset="1"/></radialGradient><radialGradient id="radial-gradient-2" cx="1519.38" cy="-1137.29" r="491.68" gradientTransform="matrix(-1.55, -0.02, 0.01, -0.76, 3832.9, -1057)" gradientUnits="userSpaceOnUse"><stop offset="0.03" stop-color="#fcee21"/><stop offset="0.1" stop-color="#ddd11d"/><stop offset="0.24" stop-color="#a49a15"/><stop offset="0.38" stop-color="#726b0f"/><stop offset="0.51" stop-color="#49450a"/><stop offset="0.65" stop-color="#292705"/><stop offset="0.77" stop-color="#121102"/><stop offset="0.89" stop-color="#050401"/><stop offset="1"/></radialGradient><clipPath id="clip-path-2"><rect class="cls-1" x="1951.9" y="-1198.4" width="1366" height="1027.75" transform="translate(1950.4 -3319.4) rotate(90)"/></clipPath><radialGradient id="radial-gradient-3" cx="709.56" cy="-682.36" r="463.77" gradientTransform="matrix(0.01, -3.15, 1.38, 0.02, 3628.06, 2257.65)" xlink:href="#radial-gradient"/><radialGradient id="radial-gradient-4" cx="961.55" cy="-751.16" r="369.97" gradientTransform="matrix(-4.08, -0.03, 0.02, -1.29, 6643.88, -845.59)" xlink:href="#radial-gradient-2"/></defs><g class="cls-2"><g id="Layer_1" data-name="Layer 1"><g class="cls-3"><ellipse class="cls-5" cx="1459.6" cy="-287.5" rx="562.6" ry="816.6" transform="translate(1730.8 1175.2) rotate(-89.4)"/><path class="cls-6" d="M703.5-201.4c2.3-206.6,342.7-370.4,760.3-365.7S2218-391.2,2215.7-184.6,1873,185.8,1455.4,181.1,701.2,5.2,703.5-201.4Z"/></g><g class="cls-7"><ellipse class="cls-8" cx="2670" cy="-1.5" rx="711.7" ry="1623.4" transform="translate(2659.2 2668.5) rotate(-89.7)"/><path class="cls-9" d="M1166.8,107.4c4.6-261.3,681.3-468.4,1511.5-462.5S4177.7-132.6,4173.1,128.7,3491.9,597.1,2661.7,591.2,1162.2,368.7,1166.8,107.4Z"/></g></g><g id="IMGS"><path class="cls-10" d="M747.3,1461.6a587.3,587.3,0,1,1,229.3-46.3A585.7,585.7,0,0,1,747.3,1461.6Z"/><path class="cls-10" d="M747.3,286.7c323.5,0,585.7,262.2,585.7,585.7s-262.2,585.7-585.7,585.7S161.6,1195.9,161.6,872.4,423.8,286.7,747.3,286.7m0-7A589.6,589.6,0,0,0,415.9,381,592.8,592.8,0,0,0,201.2,641.7a594.4,594.4,0,0,0,0,461.4,595.6,595.6,0,0,0,214.7,260.8A592.7,592.7,0,0,0,1238.8,541a595.4,595.4,0,0,0-160.1-160A589.6,589.6,0,0,0,747.3,279.7Z"/><path class="cls-11" d="M1097.8,590.9c.1,1.9,0,14.3-6.2,23-9.5,13.3-30.7,13.2-15.5,11.9C1096,624.1,1099.5,611.4,1097.8,590.9ZM1094,489.5c1.2,49.3,15.7,118.4,4.7,132.5a30.5,30.5,0,0,1-30.9,11.3c-3.4-25.6-8.9-58.2-15.8-95.3,14.8-2.6,22.3,48,23.9,33.4a54.7,54.7,0,0,0,.1-7.1l10.5-.7s-.3-45.2-1.5-74.8C1089,489.5,1092.2,489.9,1094,489.5Z"/><path class="cls-12" d="M1097.8,590.9c1.7,20.5-1.8,33.2-21.7,34.9-15.2,1.3,6,1.4,15.5-11.9C1097.8,605.2,1097.9,592.8,1097.8,590.9Z"/><path class="cls-13" d="M1094.5,469.7c-.5,6-.6,12.7-.5,19.8-1.8.4-5,0-9-.7-.2-5.6-.4-10.5-.7-14.6-1.7-25.7-29.2-36.6-46.3-6.8-2.4-11.6-4.9-23.5-7.5-35.5,39-14.5,68.3-6.6,64.1,36.1C1094.6,468.5,1094.5,469.1,1094.5,469.7Z"/><path class="cls-11" d="M1086.5,563.6l-10.5.7c-.9-15.7-8.8-38.5-26.7-40.3-2.6-13.4-5.3-27.2-8.2-41.5,4.5-1.2,11.7-.4,19.3,1a48.7,48.7,0,0,1,8.2,8.6C1083.4,511.7,1086.5,563.6,1086.5,563.6Z"/><path class="cls-14" d="M1085,488.8c1.2,29.6,1.5,74.8,1.5,74.8s-3.1-51.9-17.9-71.5a48.7,48.7,0,0,0-8.2-8.6C1069,485.1,1078.2,487.5,1085,488.8Z"/><path class="cls-14" d="M1084.3,474.2c.3,4.1.5,9,.7,14.6-6.8-1.3-16-3.7-24.6-5.3-8.9-7.2-17.1-7.5-20.6-7.2l-1.8-8.9C1055.1,437.6,1082.6,448.5,1084.3,474.2Z"/><path class="cls-14" d="M1076,564.3a54.7,54.7,0,0,1-.1,7.1c-1.6,14.6-9.1-36-23.9-33.4l-2.7-14C1067.2,525.8,1075.1,548.6,1076,564.3Z"/><path class="cls-13" d="M1052,538c6.9,37.1,12.4,69.7,15.8,95.3q2,15.3,3,27c3,37,10.4,127.5-1.4,201.9h-.4c-2,11.1-4.7,23.9-7.9,38h-.1a173.9,173.9,0,0,1-14.1,35c12.7-33.1,20.4-105.2,19.7-193.6s-26-191.8-33-241.2c-3.9-27.3-7.8-53.8-10.8-77.7,3.6-.7,5.6-.9,5.6-.9.6,3.4,1.4,6.7,2.1,10,2.6,12,5.1,23.9,7.5,35.5l1.8,8.9c.4,2.1.8,4.2,1.3,6.2,2.9,14.3,5.6,28.1,8.2,41.5Z"/><path class="cls-13" d="M1060.4,483.5c-7.6-1.4-14.8-2.2-19.3-1-.5-2-.9-4.1-1.3-6.2C1043.3,476,1051.5,476.3,1060.4,483.5Z"/><path class="cls-14" d="M1046.9,935.3a173.9,173.9,0,0,0,14.1-35c-5.7,25.1-13.2,54.5-22,86.6h0c-98.2,85.4-202.9,116.1-206.1,117,4.4-2.9,173.7-115.5,202.8-152.4A103.9,103.9,0,0,0,1046.9,935.3Z"/><path class="cls-13" d="M1039.3,776.2c-.3-.8-3.7-7.1-30.4-57.2-30.1-56.3-88.8-130.4-90.6-132.7,1.8,1.3,49.1,36.4,70.5,71.4S1038.1,772.7,1039.3,776.2Z"/><path class="cls-13" d="M1028.4,421.9s-2,.2-5.6.9c-2.6-19.3-4.6-36.9-5.7-51.9C1021,388.1,1024.8,405.2,1028.4,421.9Z"/><path class="cls-15" d="M984.8,754.2c18.1,38.9,18.2,48.6,18.2,48.6S996.2,782.4,984.8,754.2Z"/><path class="cls-16" d="M992.3,432c3.8-1.6,7.4-2.9,10.7-4.1-1.1,30.6-16.3,55-15.5,44.1S998.4,448.1,992.3,432Z"/><path class="cls-14" d="M920.3,629.4c26.1,36.1,49.3,87.3,64.5,124.8-5.4-11.7-12.4-25.9-21.5-43.3-39.6-75.5-111.6-147.6-111.6-147.6l-14,3.5c18.6-21.5,6.5-36-15.6-62.7,1.7,1.5,28.2,26,38.9,41.8S874.3,566.2,920.3,629.4Z"/><path class="cls-13" d="M978.8,539.4s1.9,16.9-13.8,19.2-27.9-6.9-27.9-6.9C959.8,554.6,978.8,539.4,978.8,539.4Z"/><path class="cls-13" d="M978.8,904.4s-37.9-50.5-66.3-96.7-36.5-51.1-37-51.4C926.1,781.6,978.8,904.4,978.8,904.4Z"/><path class="cls-14" d="M965,511.6c-.7,1-12.1,16.9-45.9,18.6s-64.5-23.2-88.4-53.5a109.3,109.3,0,0,0,34.6,16.7c5.8,6.2,18.2,16.3,42.2,23.4C943.6,527.5,963.8,512.5,965,511.6Z"/><path class="cls-14" d="M813.9,1096.2s-14,18.1-67.4,18.1v-18.1C788.9,1096.8,813.9,1096.2,813.9,1096.2Z"/><path class="cls-11" d="M395.1,590.9c0,1.9.1,14.3,6.3,23,9.5,13.3,30.6,13.2,15.5,11.9C397,624.1,393.4,611.4,395.1,590.9Zm3.8-101.4c-1.2,49.3-15.7,118.4-4.7,132.5a30.7,30.7,0,0,0,31,11.3c3.3-25.6,8.8-58.2,15.8-95.3-14.9-2.6-22.3,48-23.9,33.4a41.3,41.3,0,0,1-.1-7.1l-10.5-.7s.3-45.2,1.4-74.8C403.9,489.5,400.7,489.9,398.9,489.5Z"/><path class="cls-12" d="M395.1,590.9c-1.7,20.5,1.9,33.2,21.8,34.9,15.1,1.3-6,1.4-15.5-11.9C395.2,605.2,395.1,592.8,395.1,590.9Z"/><path class="cls-13" d="M398.5,469.7a180.9,180.9,0,0,1,.4,19.8c1.8.4,5,0,9-.7.3-5.6.5-10.5.8-14.6,1.7-25.7,29.2-36.6,46.3-6.8,2.4-11.6,4.9-23.5,7.5-35.5-39.1-14.5-68.3-6.6-64.2,36.1C398.4,468.5,398.4,469.1,398.5,469.7Z"/><path class="cls-11" d="M406.5,563.6l10.5.7c.9-15.7,8.7-38.5,26.7-40.3,2.5-13.4,5.3-27.2,8.2-41.5-4.6-1.2-11.7-.4-19.4,1a52.6,52.6,0,0,0-8.2,8.6C409.5,511.7,406.5,563.6,406.5,563.6Z"/><path class="cls-14" d="M407.9,488.8c-1.1,29.6-1.4,74.8-1.4,74.8s3-51.9,17.8-71.5a52.6,52.6,0,0,1,8.2-8.6C424,485.1,414.8,487.5,407.9,488.8Z"/><path class="cls-14" d="M408.7,474.2c-.3,4.1-.5,9-.8,14.6,6.9-1.3,16.1-3.7,24.6-5.3,9-7.2,17.1-7.5,20.7-7.2.5-2.9,1.2-5.9,1.8-8.9C437.9,437.6,410.4,448.5,408.7,474.2Z"/><path class="cls-14" d="M417,564.3a41.3,41.3,0,0,0,.1,7.1c1.6,14.6,9-36,23.9-33.4.9-4.6,1.7-9.3,2.7-14C425.7,525.8,417.9,548.6,417,564.3Z"/><path class="cls-13" d="M453.2,476.3c-.5,2.1-.9,4.2-1.3,6.2-2.9,14.3-5.7,28.1-8.2,41.5-1,4.7-1.8,9.4-2.7,14-7,37.1-12.5,69.7-15.8,95.3q-2.1,15.3-3,27c-3.1,37-10.4,127.5,1.4,201.9h.3c2.1,11.1,4.8,23.9,8,38h0c3.8,12.9,8.4,24.7,14.2,35-12.7-33.1-20.5-105.2-19.8-193.6s26.1-191.8,33.1-241.2c3.8-27.3,7.7-53.8,10.8-77.7-3.6-.7-5.6-.9-5.6-.9l-2.1,10c-2.6,12-5.1,23.9-7.5,35.5C454.4,470.4,453.7,473.4,453.2,476.3Z"/><path class="cls-11" d="M1065.6,741.7c-.6-88.3-26-191.8-33-241.2-3.9-27.3-7.8-53.8-10.8-77.7a131.2,131.2,0,0,0-19.8,5.1c-1.1,30.6-16.3,55-15.5,44.1s10.9-23.9,4.8-40c-20.9,8.6-56.6,74.9-117.7,63.6a90.1,90.1,0,0,1-9.3-2.2c5.8,6.2,18.2,16.3,42.2,23.4,36.1,10.7,56.3-4.3,57.5-5.2-.7,1-12.1,16.9-45.9,18.6s-64.5-23.2-88.4-53.5c-27.1-19.1-43.8-44.3-83.2-44.7h-1c-39.5.4-56.2,25.6-83.2,44.7-24,30.3-53.6,55.2-88.4,53.5s-45.2-17.6-45.9-18.6c1.2.9,21.4,15.9,57.5,5.2,23.9-7.1,36.4-17.2,42.1-23.4a79.3,79.3,0,0,1-9.3,2.2c-61,11.3-96.8-55-117.7-63.6-6.1,16.1,4,29.2,4.8,40s-14.4-13.5-15.5-44.1a130.6,130.6,0,0,0-19.7-5.1c-3.1,23.9-7,50.4-10.8,77.7-7,49.4-32.5,152.9-33.1,241.2s7.1,160.5,19.8,193.6a103.6,103.6,0,0,0,11.1,16.3c7.8,9,16.8,15.6,27.4,19.4,110.3,38.7,106.7,86.7,260.9,86.9h1c154.1-.2,150.5-48.2,260.9-86.9,10.6-3.8,19.6-10.4,27.3-19.4a103.9,103.9,0,0,0,11.2-16.3C1058.6,902.2,1066.3,830.1,1065.6,741.7ZM977.8,539.4s1.9,16.9-13.8,19.2-27.9-6.9-27.9-6.9C958.8,554.6,977.8,539.4,977.8,539.4Zm-232.3,30h1c36.8-.3,41-17.1,61.2-17.7s20.9,22,15.6,24.4-11.9-1.8-29.9-2.9-18.3,17.8-47.4,18-29.5-19.2-47.5-18-24.7,5.2-29.9,2.9-4.7-25,15.7-24.4S708.7,569.1,745.5,569.4ZM746,719c-39.9-.1-70.4-16.2-70.4-16.2S699.8,690.1,746,690s70.4,12.8,70.4,12.8S785.8,718.9,746,719Zm0-63c-36.5-.1-77.2-13-104.2,5.2s-37.1,33.4-41.8,31.7-7.5-16.3,0-16.3h7.6s31.9-29,56.3-38.9,55.9-8.2,55.9-8.2,5,8.5,25.7,8.7h1c20.6-.2,25.7-8.7,25.7-8.7s31.4-1.7,55.8,8.2,56.4,38.9,56.4,38.9h7.5c7.6,0,4.7,14.5,0,16.3s-14.8-13.4-41.8-31.7S782.5,655.9,746,656ZM514.1,539.4s19.1,15.2,41.7,12.3c0,0-12.2,9.3-27.8,6.9S514.1,539.4,514.1,539.4ZM484,719c-26.7,50.1-30,56.4-30.4,57.2,1.2-3.5,29.2-83.5,50.5-118.5s68.8-70.1,70.6-71.4C572.9,588.6,514.1,662.7,484,719Zm5.9,83.8s.2-9.7,18.2-48.6c15.2-37.5,38.4-88.7,64.6-124.8,45.9-63.2,48.2-67.3,59.3-83.5s37.2-40.3,38.8-41.8c-22,26.7-34.2,41.2-15.6,62.7l-13.9-3.5s-72.1,72.1-111.6,147.6c-9.1,17.4-16.2,31.6-21.6,43.3C496.7,782.4,489.9,802.8,489.9,802.8Zm127.5-46.5c-.5.3-9.5,6.6-37,51.4s-66.3,96.7-66.3,96.7S566.8,781.6,617.4,756.3Zm266,258c-43.7,17.4-75,21.8-137.4,21.8s-93.8-4.4-137.5-21.8a440.2,440.2,0,0,1-76.8-40.1c47.1,3.2,76.1,25.3,122.4,24.8s40.1-24.6,91.9-24.8,45.8,24.2,91.9,24.8,75.3-21.6,122.4-24.8A439,439,0,0,1,883.4,1014.3Zm28.1-206.6c-27.5-44.8-36.5-51.1-37-51.4,50.6,25.3,103.3,148.1,103.3,148.1S939.9,853.9,911.5,807.7Zm72.3-53.5c-5.4-11.7-12.4-25.9-21.5-43.3-39.6-75.5-111.6-147.6-111.6-147.6l-14,3.5c18.6-21.5,6.5-36-15.6-62.7,1.7,1.5,28.2,26,38.9,41.8s13.3,20.3,59.3,83.5c26.1,36.1,49.3,87.3,64.5,124.8,18.1,38.9,18.2,48.6,18.2,48.6S995.2,782.4,983.8,754.2Zm24.1-35.2c-30.1-56.3-88.8-130.4-90.6-132.7,1.8,1.3,49.1,36.4,70.5,71.4s49.3,115,50.5,118.5C1038,775.4,1034.6,769.1,1007.9,719Z"/><path class="cls-13" d="M432.5,483.5c7.7-1.4,14.8-2.2,19.4-1,.4-2,.8-4.1,1.3-6.2C449.6,476,441.5,476.3,432.5,483.5Z"/><path class="cls-14" d="M446.1,935.3c-5.8-10.3-10.4-22.1-14.2-35,5.8,25.1,13.3,54.5,22,86.6h.1c98.2,85.4,202.8,116.1,206.1,117-4.4-2.9-173.8-115.5-202.9-152.4A103.6,103.6,0,0,1,446.1,935.3Z"/><path class="cls-13" d="M453.6,776.2c.4-.8,3.7-7.1,30.4-57.2,30.1-56.3,88.9-130.4,90.7-132.7-1.8,1.3-49.2,36.4-70.6,71.4S454.8,772.7,453.6,776.2Z"/><path class="cls-13" d="M831.9,1104c4.4-2.9,173.7-115.5,202.8-152.4-7.7,9-16.7,15.6-27.3,19.4-110.5,38.8-106.7,86.8-261.4,86.9S595,1009.8,484.6,971c-10.6-3.8-19.6-10.4-27.4-19.4,29.1,36.9,198.5,149.5,202.9,152.4-3.3-.9-107.9-31.6-206.1-117,1.1,3.9,2.1,7.9,3.2,12h.1c49.7,67.2,236.3,138.5,236.3,138.5H798.4S985,1066.2,1034.7,999h0q1.6-6.2,3.3-12C939.8,1072.4,835.1,1103.1,831.9,1104ZM746,1114.3c-53.1-.1-66.9-18.1-66.9-18.1s24.7.6,66.9.1,66.9-.1,66.9-.1S799,1114.2,746,1114.3Z"/><path class="cls-13" d="M464.6,421.9s2,.2,5.6.9c2.5-19.3,4.5-36.9,5.7-51.9C472,388.1,468.2,405.2,464.6,421.9Z"/><path class="cls-14" d="M1016.1,370.9h0l-1.8-8C942.3,378,880,405.1,746,405.2S549.7,378,477.7,362.8l-1.8,8h0c-1.2,15-3.2,32.6-5.7,51.9a130.6,130.6,0,0,1,19.7,5.1c3.4,1.2,7,2.5,10.7,4.1,20.9,8.6,56.7,74.9,117.7,63.6a79.3,79.3,0,0,0,9.3-2.2,108.8,108.8,0,0,0,34.7-16.7c27.1-19.2,43.9-44.5,83.7-44.7s56.5,25.5,83.7,44.7a109.3,109.3,0,0,0,34.6,16.7,90.1,90.1,0,0,0,9.3,2.2c61.1,11.3,96.8-55,117.7-63.6,3.8-1.6,7.4-2.9,10.7-4.1a131.2,131.2,0,0,1,19.8-5.1C1019.2,403.5,1017.2,385.9,1016.1,370.9Z"/><path class="cls-15" d="M508.1,754.2c-18,38.9-18.2,48.6-18.2,48.6S496.7,782.4,508.1,754.2Z"/><path class="cls-16" d="M500.6,432c-3.7-1.6-7.3-2.9-10.7-4.1,1.1,30.6,16.4,55,15.5,44.1S494.5,448.1,500.6,432Z"/><path class="cls-14" d="M572.7,629.4c-26.2,36.1-49.4,87.3-64.6,124.8,5.4-11.7,12.5-25.9,21.6-43.3,39.5-75.5,111.6-147.6,111.6-147.6l13.9,3.5c-18.6-21.5-6.4-36,15.6-62.7-1.6,1.5-28.1,26-38.8,41.8S618.6,566.2,572.7,629.4Z"/><path class="cls-13" d="M514.1,539.4s-1.9,16.9,13.9,19.2,27.8-6.9,27.8-6.9C533.2,554.6,514.1,539.4,514.1,539.4Z"/><path class="cls-13" d="M514.1,904.4s38-50.5,66.3-96.7,36.5-51.1,37-51.4C566.8,781.6,514.1,904.4,514.1,904.4Z"/><path class="cls-14" d="M528,511.6c.7,1,12.1,16.9,45.9,18.6s64.4-23.2,88.4-53.5a108.8,108.8,0,0,1-34.7,16.7c-5.7,6.2-18.2,16.3-42.1,23.4C549.4,527.5,529.2,512.5,528,511.6Z"/><path class="cls-13" d="M960.3,974.2c-47.1,3.2-76.2,25.3-122.4,24.8s-40.2-24.5-91.4-24.8h-1c-51.2.3-45.5,24.2-91.4,24.8s-75.3-21.6-122.4-24.8a440.2,440.2,0,0,0,76.8,40.1c43.6,17.3,74.9,21.8,137,21.8h1c62.1,0,93.3-4.5,136.9-21.8A439,439,0,0,0,960.3,974.2Z"/><path class="cls-14" d="M891.9,676.6h-7.5s-32-29-56.4-38.9-55.8-8.2-55.8-8.2-5.2,8.6-26.2,8.8-26.2-8.8-26.2-8.8-31.4-1.7-55.9,8.2-56.3,38.9-56.3,38.9H600c-7.5,0-4.6,14.5,0,16.3s14.8-13.4,41.8-31.7,67.3-5.4,103.7-5.2h1c36.3-.2,76.8-12.9,103.6,5.2s37.2,33.4,41.8,31.7S899.5,676.6,891.9,676.6Z"/><path class="cls-14" d="M807.7,551.7c-20.3.6-24.4,17.5-61.7,17.7s-41.5-17.1-61.7-17.7-20.9,22-15.7,24.4,11.9-1.8,29.9-2.9,18.4,17.5,47,18h1c28.6-.5,29.1-19.2,46.9-18s24.7,5.2,29.9,2.9S828,551.1,807.7,551.7Z"/><path class="cls-14" d="M679.1,1096.2s13.9,18.1,67.4,18.1v-18.1C704,1096.8,679.1,1096.2,679.1,1096.2Z"/><path class="cls-14" d="M746.5,719c39.6-.2,69.9-16.2,69.9-16.2s-24.1-12.6-69.9-12.8h-1c-45.8.2-69.9,12.8-69.9,12.8s30.3,16,69.9,16.2h1Z"/><path class="cls-14" d="M804.8,504c-5.2-21-26.3-76.1-26.3-76.1l43.7,40.2s1.3,24-3.4,28.8S804.8,504,804.8,504Z"/><path class="cls-14" d="M688.1,504c5.3-21,26.3-76.1,26.3-76.1l-43.7,40.2s-1.3,24,3.5,28.8S688.1,504,688.1,504Z"/><path class="cls-12" d="M773.2,530.2c-8.2.6-13.6-48.3-4.6-50.3S781.3,529.7,773.2,530.2Z"/><path class="cls-12" d="M836.9,665.9c-6.7-5-31.4-6.4-32.3,0S843.5,670.8,836.9,665.9Z"/><path class="cls-12" d="M1003,469.7c-4.6,11.9-15.5,39.1-42.5,54.3a43.5,43.5,0,0,0,32.3-20.6C1005,483.8,1003,469.7,1003,469.7Z"/><path class="cls-12" d="M503.7,493.8c11,18.2,23.2,26.7,35.7,34.2a45.5,45.5,0,0,1-24.6-9C503.1,510,503.7,493.8,503.7,493.8Z"/><path class="cls-13" d="M935.9,935.3c3-28.1-36.2-118-44.8-123.2s9.5,20,20.1,66.2S933.5,957.4,935.9,935.3Z"/><path class="cls-14" d="M888.4,524c-24.4,0-46.6-3.4-56.5-13.8-20.7-21.7-50.9-75.7-52.2-78l-1.2-2.1v-47h234.2l-.3,9.5c0,1.1-.8,27.1-4.1,54.4-6.5,53.1-16.6,63-25.7,65.7C976.5,514.5,929.3,524,888.4,524Zm-91.3-98.8c5.7,10.2,31.3,54.4,48.2,72.2,14.5,15.3,106.3,4.9,131.7-2.4,7.1-5.5,14.4-47.7,16.5-93.4H797.1Z"/><path class="cls-15" d="M797.1,413a45.7,45.7,0,0,0,6.2,23.1c10.2,17.3,28.7,47.4,42,61.3S951.6,502.3,977,495c6.5-5.1,13.2-41.2,15.9-82.6a10.1,10.1,0,0,0-10.1-10.8H797.1Z"/><path class="cls-12" d="M1008.1,408.3s-.1,1.3-.1,3.7-.2,5.7-.5,9.7-.6,8.7-1.2,13.7-1.2,10.3-1.9,15.6-1.8,10.7-2.8,15.6-2.3,9.5-3.5,13.4a78.5,78.5,0,0,1-3.3,9.1c-.9,2.2-1.5,3.4-1.5,3.4s.5-1.3,1.1-3.5a91.2,91.2,0,0,0,2.5-9.4c1-3.9,1.9-8.5,2.7-13.4s1.8-10.2,2.6-15.5,1.5-10.5,2.2-15.5,1.3-9.7,1.9-13.6l1.3-9.7C1007.9,409.6,1008.1,408.3,1008.1,408.3Z"/><path class="cls-12" d="M982,506l-1.7.7c-1.1.3-2.7,1-4.6,1.5l-6.6,1.8-7.5,1.7-7.7,1.3c-2.4.4-4.7.6-6.7.8s-3.6.3-4.8.4h-1.8l1.7-.5c1.2-.3,2.7-.8,4.7-1.2l6.6-1.5,7.5-1.6,7.6-1.4,6.7-1.1,4.7-.7Z"/><path class="cls-12" d="M804,446.1l1.4,2,3.7,5.4,5,7.7,5.8,8.8,5.7,8.8,5,7.7,3.5,5.5,1.4,2a16.4,16.4,0,0,1-1.7-1.8c-1-1.2-2.6-2.8-4.2-5s-3.7-4.6-5.6-7.3-4-5.7-6-8.7-3.8-6.1-5.5-9-3.2-5.7-4.5-8-2.2-4.5-3-5.9Z"/><path class="cls-14" d="M513.3,512.7c-9-2.7-19.2-12.6-25.6-65.7-3.3-27.3-4.1-53.3-4.1-54.4l-.3-9.5H717.4v47l-1.1,2.1c-1.3,2.3-31.5,56.3-52.2,78C654.2,520.6,632,524,607.5,524,566.6,524,519.5,514.5,513.3,512.7ZM698.9,401.6H502.5c2.1,45.7,9.4,87.9,16.4,93.4,25.5,7.3,117.2,17.7,131.8,2.4,16.9-17.8,42.5-62,48.2-72.2Z"/><path class="cls-15" d="M698.9,401.6H513.2a10.1,10.1,0,0,0-10.1,10.8c2.6,41.4,9.4,77.5,15.8,82.6,25.5,7.3,117.2,17.7,131.8,2.4s31.7-44,41.9-61.3a45.8,45.8,0,0,0,6.3-23.1Z"/><path class="cls-12" d="M487.9,408.3s.2,1.3.5,3.6l1.3,9.7c.5,3.9,1.2,8.7,1.9,13.6s1.4,10.2,2.2,15.5,1.6,10.6,2.5,15.5,1.8,9.5,2.7,13.4,1.8,7.2,2.5,9.4,1.2,3.5,1.2,3.5l-1.6-3.4c-.9-2.1-2.1-5.3-3.3-9.1s-2.4-8.5-3.4-13.4-2-10.2-2.8-15.6-1.5-10.6-2-15.6-.8-9.7-1.1-13.7-.4-7.4-.5-9.7S487.9,408.3,487.9,408.3Z"/><path class="cls-15" d="M887.2,501.7c-29.7,0-37.4-4.7-39.3-6.8-13.1-13.7-31.6-43.9-41.5-60.6a42.1,42.1,0,0,1-5.8-21.3v-7.8H982.8a6.7,6.7,0,0,1,4.8,2,6.6,6.6,0,0,1,1.8,5c-3,45.7-10,74.9-14.1,79.6-15.3,4.2-55.4,9.9-88.1,9.9Z"/><path class="cls-15" d="M608.8,501.7c-32.7,0-72.8-5.7-88.1-9.9-4.2-4.7-11.1-33.9-14.1-79.6a6.6,6.6,0,0,1,1.8-5,6.4,6.4,0,0,1,4.8-2H695.3V413a42.7,42.7,0,0,1-5.7,21.3c-9.9,16.8-28.4,46.9-41.5,60.6-1.9,2.1-9.7,6.8-39.3,6.8Z"/><path class="cls-12" d="M982.6,405.2H942.9l-38.8,96.1c14.2-.7,28.7-2.2,41.3-4Z"/><path class="cls-12" d="M628.1,405.2l-38.8,95.9c6.6.4,13.2.6,19.5.6a181.6,181.6,0,0,0,20.4-1l38.6-95.5Z"/><path class="cls-17" d="M1158.4,457.6c-21.1,5-43.4,9-63.9,12.1,0-.6.1-1.2.1-1.7,4.2-42.7-25.1-50.6-64.1-36.1-.7-3.3-1.5-6.6-2.1-10-3.6-16.7-7.4-33.8-11.3-51h0l-1.8-8a438,438,0,0,1,93.3-10c69.6,0,107.1,10,127.4,23.2l.3.2c9.1,7.3,14.8,15.4,15.8,24.3C1255.2,427.1,1210.2,445.4,1158.4,457.6Z"/><path class="cls-18" d="M913.5,371.4c85.3-23.9,211.3-26.6,120.1-18.6l-3.1.3C941.4,361.8,902,400,746.5,400v-9.3C781.9,390.7,843.7,391,913.5,371.4Z"/><path class="cls-17" d="M1012,306.6c.7,2.1,1.4,3.9,1.9,5.4s-36-8.2-152.8-4.3C861.1,307.7,935.3,296.9,1012,306.6Z"/><path class="cls-17" d="M746.5,254.9c45.9,0,151.7,3.5,151.7,3.5s-111.9,1.8-151.7,1.8Z"/><path class="cls-17" d="M334.6,457.6c21.1,5,43.3,9,63.9,12.1-.1-.6-.1-1.2-.2-1.7-4.1-42.7,25.1-50.6,64.2-36.1l2.1-10c3.6-16.7,7.4-33.8,11.3-51h0l1.8-8a438,438,0,0,0-93.3-10c-69.7,0-107.2,10-127.5,23.2l-.2.2c-9.1,7.3-14.9,15.4-15.9,24.3C237.8,427.1,282.8,445.4,334.6,457.6Z"/><path class="cls-19" d="M1014.6,316.8c-60.9-6.1-212.4,0-268.6,0s-207.8-6.1-268.6,0c0,0-167,16.5-220.5,59.2,20.3-13.2,57.8-23.2,127.5-23.2a438,438,0,0,1,93.3,10C549.6,378,611.8,405,745.5,405.2h1c133.7-.2,195.9-27.2,267.8-42.4a438,438,0,0,1,93.3-10c69.6,0,107.1,10,127.4,23.2C1181.6,333.3,1014.6,316.8,1014.6,316.8Zm18,36-3.1.3c-89,8.7-128.4,46.8-283.5,46.9s-194.6-38.2-283.5-46.9l-3.1-.3c-91.3-8,34.8-5.3,120.1,18.6,69.4,19.5,131,19.3,166.5,19.3s97,.2,166.5-19.3C997.8,347.5,1123.8,344.8,1032.6,352.8Z"/><path class="cls-18" d="M579.5,371.4c-85.3-23.9-211.4-26.6-120.1-18.6l3.1.3c89,8.7,128.4,46.9,284,46.9v-9.3C711,390.7,649.3,391,579.5,371.4Z"/><path class="cls-18" d="M1014.6,316.8l-1.7-4.8s-36-8.2-152.8-4.3c0,0,74.2-10.8,150.9-1.1-3.7-10.3-10-27.8-18-49-64.4-5.4-192.7-6.1-246.5-6.1h-1c-53.9,0-182.2.7-246.5,6.1-8,21.2-14.4,38.7-18,49,76.6-9.7,150.8,1.1,150.8,1.1C515,303.8,479.1,312,479.1,312l-1.7,4.8c60.6-6.1,211.5-.1,268.1,0h1C803,316.7,953.9,310.7,1014.6,316.8ZM594.8,258.4s105-3.4,151.2-3.5,151.2,3.5,151.2,3.5-111,1.8-151.2,1.8S594.8,258.4,594.8,258.4Z"/><path class="cls-17" d="M481,306.6c-.8,2.1-1.4,3.9-1.9,5.4s35.9-8.2,152.7-4.3C631.8,307.7,557.6,296.9,481,306.6Z"/><path class="cls-19" d="M993,257.6C966.4,187.3,921.2,76.3,891.9,51.8c-33.7-28.4-75.8-7.6-114.1,8.9,25.7-7.8,56-16.4,56-16.4S814.7,84.8,746,94.8c-68.8-10-87.8-50.5-87.8-50.5s30.2,8.6,56,16.4C675.9,44.2,633.8,23.4,600,51.8c-29.2,24.5-74.5,135.5-101,205.8,64.5-5.4,193.4-6.1,247-6.1S928.4,252.2,993,257.6Z"/><path class="cls-17" d="M746.5,254.9c-46,0-151.7,3.5-151.7,3.5s111.9,1.8,151.7,1.8Z"/><path class="cls-17" d="M833.8,44.3s-30.3,8.6-56,16.4h-.4c-10.9,4.7-21.5,9-31.4,11.8-10-2.8-20.6-7.1-31.5-11.8h-.3c-25.8-7.8-56-16.4-56-16.4s18.9,40.3,87.3,50.4v.2h1v-.2C814.8,84.6,833.8,44.3,833.8,44.3Z"/><path class="cls-19" d="M1241.3,998.7l69.6,32.7a585.8,585.8,0,0,1-179.3,284l-46.7-98.1c3.9.1,39.5.5,71.3-2.7,33.7-3.5,47.1-20.3,47.1-20.3v-.3Z"/><path class="cls-17" d="M1241.3,998.7h0l-38,195.3c.7-5.7,11.5-99.6,26.2-200.9Z"/><path class="cls-19" d="M969.5,1211c24.9-72.2,48-147.2,66.2-212.3h0l3.3-12h0c8.8-32.1,16.3-61.6,22-86.7a.1.1,0,0,0,.1-.1,341.1,341.1,0,0,0,8.3-37.9c16-.2,24.2-9,33.4,0S1222.5,976.9,1226,985l3.5,8.1c-14.7,101.3-25.5,195.2-26.2,200.9v.3l-118.4,23-36.5-76.6,66.8,188.5A583.1,583.1,0,0,1,873.4,1446C903.9,1388.7,938.2,1302,969.5,1211Zm97.2-206.2c1.2-2.2,20.4-37.8,25.9-69.8s0-63.1,0-63.1S1090.5,925.1,1066.7,1004.8Z"/><path class="cls-17" d="M1203.3,1194.3s-13.4,16.8-47.1,20.3c-31.8,3.2-67.4,2.8-71.3,2.7h0Z"/><path class="cls-17" d="M1084.9,1217.3l46.7,98.1c-5.4,4.7-10.9,9.3-16.4,13.8l-66.8-188.5,36.5,76.6Z"/><path class="cls-17" d="M1092.6,871.9s5.6,30.1,0,63.1-24.7,67.6-25.9,69.8C1090.5,925.1,1092.6,871.9,1092.6,871.9Z"/><path class="cls-12" d="M1035.7,998.7c-18.2,65.1-41.3,140.1-66.2,212.3l-6.1,6.3h-.1l-78.2,80c-10.7-41.2-27.9-76.3-44-103.1-21.8-36.2-41.7-57.1-41.7-57.1S986,1065.9,1035.7,998.7Z"/><path class="cls-17" d="M963.4,1217.3l6.1-6.3c-31.3,91-65.6,177.7-96.1,235l-14.6,3c6.8-14.1,35.5-73.3,60.3-122.4a763.1,763.1,0,0,0,44.3-109.3Z"/><path class="cls-12" d="M963.3,1217.4h.1a763.1,763.1,0,0,1-44.3,109.3c-24.8,49.1-53.5,108.3-60.3,122.4-5.9,1.2-11.8,2.2-17.7,3.1-4.8-82.3-29.1-166-51.6-194.3a328.2,328.2,0,0,0-17-31.9l12-5.5,54.8-14.1s22.7,36.6,31,68,6.1,52.3,6.1,52.3Z"/><path class="cls-20" d="M963.3,1217.4l-86.9,109.2s2.1-20.9-6.1-52.3-31-68-31-68l-54.8,14.1,56.6-26.1c16.1,26.8,33.3,61.9,44,103.1Z"/><path class="cls-20" d="M841.1,1452.1l-12.9,2c-.9-18-3.8-74.7-8.5-103.6-5.9-36.3-19.2-69.7-30.2-92.7C812,1286.1,836.3,1369.8,841.1,1452.1Z"/><path class="cls-21" d="M801.5,1302c22.9,56.5,17.5,153.3,17.5,153.3l-12.9,1.5C815.2,1391.7,802.1,1306,801.5,1302Z"/><path class="cls-19" d="M251.6,998.7l-69.5,32.7a585.6,585.6,0,0,0,179.2,284l46.7-98.1c-3.8.1-39.4.5-71.3-2.7-33.7-3.5-47-20.3-47-20.3v-.3Z"/><path class="cls-17" d="M251.6,998.7h0l38,195.3c-.6-5.7-11.4-99.6-26.1-200.9Z"/><path class="cls-19" d="M426.2,1004.8c-1.2-2.2-20.3-37.8-25.8-69.8s0-63.1,0-63.1S402.5,925.1,426.2,1004.8ZM523.4,1211c-24.9-72.2-48-147.2-66.1-212.3h-.1c-1.1-4-2.1-8-3.2-12h-.1c-8.7-32.1-16.2-61.6-22-86.7h0a301.2,301.2,0,0,1-8.3-37.9c-16.1-.2-24.3-9-33.4,0S270.5,976.9,267,985l-3.5,8.1c14.7,101.3,25.5,195.2,26.1,200.9v.3l118.4,23,36.4-76.6-66.7,188.5A582.6,582.6,0,0,0,619.6,1446C589,1388.7,554.8,1302,523.4,1211Z"/><path class="cls-17" d="M289.7,1194.3s13.3,16.8,47,20.3c31.9,3.2,67.5,2.8,71.3,2.7h.1Z"/><path class="cls-17" d="M408,1217.3l-46.7,98.1q8.1,7,16.5,13.8l66.7-188.5-36.4,76.6Z"/><path class="cls-17" d="M400.4,871.9s-5.7,30.1,0,63.1,24.6,67.6,25.8,69.8C402.5,925.1,400.4,871.9,400.4,871.9Z"/><path class="cls-12" d="M457.3,998.7c18.1,65.1,41.2,140.1,66.1,212.3l6.2,6.3h.1l78.1,80c10.8-41.2,27.9-76.3,44.1-103.1,21.7-36.2,41.7-57.1,41.7-57.1S507,1065.9,457.3,998.7Z"/><path class="cls-17" d="M529.6,1217.3l-6.2-6.3c31.4,91,65.6,177.7,96.2,235l14.6,3c-6.8-14.1-35.6-73.3-60.3-122.4a749.6,749.6,0,0,1-44.3-109.3Z"/><path class="cls-12" d="M529.7,1217.4h-.1a749.6,749.6,0,0,0,44.3,109.3c24.7,49.1,53.5,108.3,60.3,122.4,5.8,1.2,11.7,2.2,17.7,3.1,4.8-82.3,29.1-166,51.5-194.3a340.2,340.2,0,0,1,17.1-31.9l-12-5.5-54.9-14.1s-22.6,36.6-30.9,68-6.1,52.3-6.1,52.3Z"/><path class="cls-20" d="M529.7,1217.4l86.9,109.2s-2.2-20.9,6.1-52.3,30.9-68,30.9-68l54.9,14.1-56.6-26.1c-16.2,26.8-33.3,61.9-44.1,103.1Z"/><path class="cls-22" d="M798.4,1137.2H693.6s-20,20.9-41.7,57.1l56.6,26.1,12,5.5h51l12-5.5,56.6-26.1C818.3,1158.1,798.4,1137.2,798.4,1137.2Z"/><path class="cls-20" d="M651.9,1452.1l12.9,2c.8-18,3.7-74.7,8.4-103.6,6-36.3,19.3-69.7,30.2-92.7C681,1286.1,656.7,1369.8,651.9,1452.1Z"/><path class="cls-22" d="M827.2,1454.1c-.9-18-3.8-74.7-8.5-103.6-5.9-36.3-19.2-69.7-30.2-92.7a328.2,328.2,0,0,0-17-31.9h-51a340.2,340.2,0,0,0-17.1,31.9c-10.9,23-24.2,56.4-30.2,92.7-4.7,28.9-7.6,85.6-8.4,103.6,3,.4,6.1.9,9.2,1.2,0,0-5.5-96.8,17.5-153.3-.6,4-13.8,89.7-4.6,154.8q29,2.9,58.6,3h1c19.7-.1,39.3-1.1,58.6-3,9.1-65.1-4-150.8-4.6-154.8,22.9,56.5,17.5,153.3,17.5,153.3C821.1,1455,824.1,1454.5,827.2,1454.1Z"/><path class="cls-21" d="M691.5,1302c-23,56.5-17.5,153.3-17.5,153.3l12.9,1.5C677.7,1391.7,690.9,1306,691.5,1302Z"/></g></g></svg>