<svg xmlns="http://www.w3.org/2000/svg" xmlns:xlink="http://www.w3.org/1999/xlink" viewBox="0 0 1494.6 1497.5"><defs><style>.cls-1{fill:none;}.cls-2{isolation:isolate;}.cls-3{clip-path:url(#clip-path);}.cls-4{opacity:0.98;}.cls-5,.cls-6,.cls-8,.cls-9{mix-blend-mode:screen;}.cls-5{fill:url(#radial-gradient);}.cls-6,.cls-9{opacity:0.67;}.cls-6{fill:url(#radial-gradient-2);}.cls-7{clip-path:url(#clip-path-2);}.cls-8{fill:url(#radial-gradient-3);}.cls-9{fill:url(#radial-gradient-4);}.cls-10{fill:#5e5e5e;}.cls-11{fill:#8e8e8e;}.cls-12{fill:#cc529e;}.cls-13{fill:#f97ac2;}</style><clipPath id="clip-path"><rect class="cls-1" x="901.9" y="-1312.6" width="1080" height="970.13" transform="translate(614.4 -2269.4) rotate(90)"/></clipPath><radialGradient id="radial-gradient" cx="1434.64" cy="-1014.43" r="616.32" gradientTransform="matrix(0, -1.19, 0.82, 0, 2309.89, 1429.07)" gradientUnits="userSpaceOnUse"><stop offset="0" stop-color="#e21c25"/><stop offset="0.08" stop-color="#be181f"/><stop offset="0.21" stop-color="#8c1117"/><stop offset="0.33" stop-color="#610c10"/><stop offset="0.46" stop-color="#3e080a"/><stop offset="0.6" stop-color="#230406"/><stop offset="0.73" stop-color="#0f0203"/><stop offset="0.86" stop-color="#040001"/><stop offset="1"/></radialGradient><radialGradient id="radial-gradient-2" cx="1519.38" cy="-1137.29" r="491.68" gradientTransform="matrix(-1.55, -0.02, 0.01, -0.76, 3832.9, -1057)" gradientUnits="userSpaceOnUse"><stop offset="0.03" stop-color="#fcee21"/><stop offset="0.1" stop-color="#ddd11d"/><stop offset="0.24" stop-color="#a49a15"/><stop offset="0.38" stop-color="#726b0f"/><stop offset="0.51" stop-color="#49450a"/><stop offset="0.65" stop-color="#292705"/><stop offset="0.77" stop-color="#121102"/><stop offset="0.89" stop-color="#050401"/><stop offset="1"/></radialGradient><clipPath id="clip-path-2"><rect class="cls-1" x="1951.9" y="-1198.4" width="1366" height="1027.75" transform="translate(1950.4 -3319.4) rotate(90)"/></clipPath><radialGradient id="radial-gradient-3" cx="709.56" cy="-682.36" r="463.77" gradientTransform="matrix(0.01, -3.15, 1.38, 0.02, 3628.06, 2257.65)" xlink:href="#radial-gradient"/><radialGradient id="radial-gradient-4" cx="961.55" cy="-751.16" r="369.97" gradientTransform="matrix(-4.08, -0.03, 0.02, -1.29, 6643.88, -845.59)" xlink:href="#radial-gradient-2"/></defs><g class="cls-2"><g id="Layer_1" data-name="Layer 1"><g class="cls-3"><ellipse class="cls-5" cx="1459.6" cy="-287.5" rx="562.6" ry="816.6" transform="translate(1730.8 1175.2) rotate(-89.4)"/><path class="cls-6" d="M703.5-201.4c2.3-206.6,342.7-370.4,760.3-365.7S2218-391.2,2215.7-184.6,1873,185.8,1455.4,181.1,701.2,5.2,703.5-201.4Z"/></g><g class="cls-7"><ellipse class="cls-8" cx="2670" cy="-1.5" rx="711.7" ry="1623.4" transform="translate(2659.2 2668.5) rotate(-89.7)"/><path class="cls-9" d="M1166.8,107.4c4.6-261.3,681.3-468.4,1511.5-462.5S4177.7-132.6,4173.1,128.7,3491.9,597.1,2661.7,591.2,1162.2,368.7,1166.8,107.4Z"/></g></g><g id="IMGS"><path class="cls-10" d="M1356.7,760.7l-85.1,84.7L747.3,1370V321.1L832.4,236C977.1,91.3,1212,91.3,1356.7,236S1501.4,615.6,1356.7,760.7Z"/><path class="cls-11" d="M1410.8,498.2c0,84.7-33.1,163.9-92.7,223.9L747.3,1292.6V398.2L870.9,274.9c59.6-60,139.3-92.7,223.6-92.7a314.6,314.6,0,0,1,223.6,92.7C1377.7,334.6,1410.8,413.8,1410.8,498.2Z"/><path class="cls-12" d="M747.3,321.1V1370L223,845.4l-85-84.7C-6.7,615.6-6.7,381.1,138,236s379.5-144.7,524.6,0Z"/><path class="cls-13" d="M747.3,398.2v894.4L176.5,722.1A315.1,315.1,0,0,1,84.2,498.2c0-84.4,32.7-163.6,92.3-223.3s139.3-92.7,223.6-92.7,164,32.7,223.6,92.7Z"/></g></g></svg>